<?xml version="1.0" encoding="UTF-8" standalone="no"?>
<!DOCTYPE svg PUBLIC "-//W3C//DTD SVG 1.1//EN" "http://www.w3.org/Graphics/SVG/1.1/DTD/svg11.dtd">
<!-- Created with Vectornator (http://vectornator.io/) -->
<svg height="100%" stroke-miterlimit="10" style="fill-rule:nonzero;clip-rule:evenodd;stroke-linecap:round;stroke-linejoin:round;" version="1.1" viewBox="0 0 841.89 595.28" width="100%" xml:space="preserve" xmlns="http://www.w3.org/2000/svg" xmlns:vectornator="http://vectornator.io" xmlns:xlink="http://www.w3.org/1999/xlink">
<defs/>
<clipPath id="ArtboardFrame">
<rect height="595.28" width="841.89" x="0" y="0"/>
</clipPath>
<g clip-path="url(#ArtboardFrame)" id="名称未設定" vectornator:layerName="名称未設定">
<g opacity="1" vectornator:layerName="path">
<clipPath clip-rule="nonzero" id="ClipPath">
<path d="M0 2.92969e-05L841.89 2.92969e-05L841.89 595.28L0 595.28L0 2.92969e-05Z"/>
</clipPath>
<g clip-path="url(#ClipPath)">
<path d="M178.121 233.949C202.968 248.142 211.603 279.789 197.41 304.637C183.218 329.483 151.57 338.117 126.723 323.925C101.877 309.732 93.2411 278.084 107.433 253.237C121.627 228.39 153.275 219.755 178.121 233.949" fill="#fed600" fill-rule="nonzero" opacity="1" stroke="none" vectornator:layerName="path"/>
<path d="M188.282 256.812C193.961 260.056 195.935 267.289 192.692 272.966C189.447 278.645 182.215 280.62 176.535 277.375C170.857 274.132 168.884 266.899 172.128 261.221C175.371 255.542 182.604 253.568 188.282 256.812" fill="#ffffff" fill-rule="nonzero" opacity="1" stroke="none" vectornator:layerName="path"/>
<path d="M174.83 205.508C130.904 188.289 81.1556 210.017 63.9356 253.943C46.7156 297.869 68.4446 347.617 112.371 364.836C137.668 374.754 165.458 372.239 188.614 357.943L194.307 354.425L198.679 359.489C201.018 362.193 203.883 364.225 207.198 365.525C218.394 369.915 231.077 364.376 235.466 353.177C239.373 343.214 235.535 332.001 226.338 326.523L220.616 323.112L223.28 316.359C240.484 272.476 218.755 222.727 174.83 205.508M106.641 379.452C54.6536 359.075 28.9406 300.198 49.3186 248.213C69.6976 196.226 128.574 170.512 180.56 190.891C230.818 210.593 256.523 266.267 239.765 316.92C251.616 327.159 255.984 343.856 250.085 358.907C242.535 378.165 220.725 387.693 201.468 380.145C197.894 378.742 194.544 376.783 191.559 374.366C165.287 388.538 134.672 390.442 106.641 379.452" fill="#78c4a0" fill-rule="nonzero" opacity="1" stroke="none" vectornator:layerName="path"/>
<path d="M174.83 205.508C130.904 188.289 81.1556 210.017 63.9356 253.943C46.7156 297.869 68.4446 347.617 112.371 364.836C137.668 374.754 165.458 372.239 188.614 357.943L194.307 354.425L198.679 359.489C201.018 362.193 203.883 364.225 207.198 365.525C218.394 369.915 231.077 364.376 235.466 353.177C239.373 343.214 235.535 332.001 226.338 326.523L220.616 323.112L223.28 316.359C240.484 272.476 218.755 222.727 174.83 205.508ZM106.641 379.452C54.6536 359.075 28.9406 300.198 49.3186 248.213C69.6976 196.226 128.574 170.512 180.56 190.891C230.818 210.593 256.523 266.267 239.765 316.92C251.616 327.159 255.984 343.856 250.085 358.907C242.535 378.165 220.725 387.693 201.468 380.145C197.894 378.742 194.544 376.783 191.559 374.366C165.287 388.538 134.672 390.442 106.641 379.452Z" fill="none" opacity="1" stroke="#78c4a0" stroke-linecap="butt" stroke-linejoin="miter" stroke-width="5" vectornator:layerName="path"/>
<path d="M262.809 256.303C262.996 254.21 263.9 252.74 265.517 251.901C267.131 251.065 268.842 250.751 270.649 250.958C272.452 251.168 274.163 251.695 275.78 252.531C277.392 253.37 278.39 254.417 278.774 255.675C278.961 263.433 279.201 271.295 279.486 279.26C279.77 287.23 280.292 295.299 281.053 303.475C282.573 296.556 284.332 289.746 286.328 283.033C288.322 276.327 291.219 269.825 295.023 263.536C295.779 262.072 297.062 261.129 298.872 260.706C300.675 260.288 302.478 260.235 304.287 260.549C306.09 260.863 307.801 261.389 309.419 262.121C311.03 262.858 312.126 263.644 312.696 264.48C313.453 266.578 314.308 269.669 315.262 273.757C316.21 277.845 317.257 282.357 318.398 287.279C319.538 292.207 320.678 297.136 321.817 302.059C322.959 306.988 324.099 311.234 325.239 314.796C326.38 311.862 327.613 308.457 328.945 304.575C330.272 300.698 331.653 296.714 333.079 292.625C334.505 288.537 335.973 284.556 337.498 280.675C339.017 276.798 340.536 273.496 342.059 270.769C345.288 264.902 348.423 261.964 351.466 261.964C355.265 261.964 358.209 263.276 360.303 265.895C362.392 268.519 364.102 271.767 365.434 275.644C366.761 279.526 367.857 283.82 368.712 288.537C369.567 293.254 370.565 297.814 371.705 302.216C372.845 306.619 374.315 310.605 376.124 314.167C377.928 317.733 380.542 320.249 383.963 321.715C385.86 321.084 387.668 320.249 389.379 319.199C391.089 318.153 392.894 317.105 394.796 316.052C397.455 315.007 399.308 315.637 400.355 317.941C401.396 320.249 400.684 322.24 398.217 323.914C396.123 325.174 393.985 326.43 391.803 327.69C389.616 328.948 387.287 329.998 384.818 330.832C380.258 332.303 376.36 332.357 373.131 330.991C369.897 329.63 367.189 327.374 365.007 324.23C362.82 321.084 361.015 317.365 359.59 313.065C358.165 308.772 356.926 304.471 355.884 300.172C354.837 295.878 353.84 291.839 352.891 288.066C351.938 284.291 350.895 281.359 349.756 279.26C347.475 282.616 345.431 286.445 343.626 290.739C341.818 295.038 340.157 299.387 338.638 303.788C337.114 308.193 335.644 312.491 334.219 316.682C332.794 320.878 331.128 324.441 329.23 327.374C327.707 329.683 325.666 331.36 323.101 332.406C320.535 333.457 317.729 331.989 314.691 328.003C313.168 326.117 311.698 322.923 310.274 318.411C308.848 313.906 307.468 309.032 306.139 303.788C304.808 298.552 303.525 293.362 302.291 288.223C301.054 283.088 299.868 278.739 298.728 275.172C296.447 279.368 294.781 284.135 293.74 289.48C292.693 294.827 291.887 300.329 291.316 305.991C290.746 311.651 290.269 317.261 289.892 322.815C289.508 328.371 288.75 333.457 287.61 338.068C287.227 339.535 286.184 340.691 284.474 341.526C282.764 342.361 280.956 342.832 279.058 342.942C277.156 343.045 275.352 342.783 273.642 342.154C271.932 341.526 270.792 340.48 270.222 339.011C267.559 325.596 265.802 311.808 264.947 297.657C264.092 283.506 263.38 269.723 262.809 256.303" fill="#78c4a0" fill-rule="nonzero" opacity="1" stroke="none" vectornator:layerName="path"/>
<path d="M432.137 283.034C434.797 280.101 435.653 276.903 434.703 273.443C433.75 269.984 432.232 267.419 430.142 265.738C429.188 266.996 428.432 268.569 427.862 270.456C427.292 272.343 426.766 274.386 426.294 276.587C425.818 278.788 425.483 280.99 425.295 283.191C425.104 285.392 424.913 287.334 424.727 289.01C427.576 287.545 430.043 285.55 432.137 283.034M403.916 301.588C401.636 301.171 400.353 299.858 400.068 297.658C399.782 295.457 400.78 293.937 403.061 293.098C404.009 292.89 404.959 292.734 405.911 292.626C406.86 292.522 407.809 292.469 408.762 292.469C409.136 286.39 409.929 280.415 411.14 274.544C412.352 268.677 414.08 263.96 416.32 260.392C419.679 255.155 423.3 252.845 427.176 253.473C431.05 254.102 434.369 256.254 437.125 259.92C439.878 263.591 441.589 268.151 442.257 273.6C442.92 279.055 441.829 283.978 438.979 288.381C437.455 290.689 435.415 292.68 432.851 294.355C430.285 296.036 427.478 297.397 424.441 298.443C424.627 306.832 425.769 314.325 427.862 320.928C429.95 327.532 434.034 331.777 440.118 333.665C445.058 332.617 449.62 330.259 453.802 326.591C457.981 322.924 461.783 319.199 465.204 315.425C466.346 314.378 467.579 313.906 468.912 314.009C470.239 314.119 471.378 314.536 472.332 315.268C473.281 316.006 473.944 316.948 474.327 318.098C474.707 319.253 474.421 320.456 473.473 321.716C470.431 324.858 467.389 327.743 464.35 330.361C461.308 332.987 457.887 335.346 454.088 337.438C446.106 341.635 439.264 343.358 433.563 342.627C427.862 341.89 423.19 339.591 419.546 335.708C415.903 331.832 413.189 326.799 411.417 320.613C409.644 314.432 408.664 307.985 408.477 301.274C407.523 301.274 406.623 301.328 405.768 301.431C404.913 301.539 404.294 301.588 403.916 301.588" fill="#78c4a0" fill-rule="nonzero" opacity="1" stroke="none" vectornator:layerName="path"/>
<path d="M486.583 196.868C486.771 195.404 487.626 194.303 489.149 193.567C490.668 192.834 492.378 192.466 494.28 192.466C496.177 192.466 497.937 192.78 499.554 193.409C501.167 194.037 502.163 194.981 502.547 196.239C502.547 208.612 502.498 221.977 502.404 236.335C502.307 250.698 502.307 264.637 502.404 278.16C502.498 291.681 502.69 304.103 502.975 315.424C503.259 326.745 503.874 335.66 504.828 342.154C504.637 343.62 504.017 344.72 502.975 345.458C501.928 346.189 500.693 346.66 499.269 346.872C497.843 347.078 496.463 346.92 495.136 346.401C493.803 345.875 492.854 345.088 492.284 344.042C490.573 336.917 489.337 327.64 488.578 316.212C487.816 304.787 487.247 292.311 486.868 278.788C486.485 265.266 486.343 251.38 486.44 237.121C486.533 222.866 486.583 209.447 486.583 196.868" fill="#78c4a0" fill-rule="nonzero" opacity="1" stroke="none" vectornator:layerName="path"/>
<path d="M550.721 283.034C553.381 280.101 554.237 276.903 553.286 273.443C552.334 269.984 550.815 267.419 548.726 265.738C547.772 266.996 547.015 268.569 546.445 270.456C545.876 272.343 545.349 274.386 544.877 276.587C544.402 278.788 544.067 280.99 543.879 283.191C543.688 285.392 543.497 287.334 543.31 289.01C546.16 287.545 548.626 285.55 550.721 283.034M522.5 301.588C520.219 301.171 518.937 299.858 518.652 297.658C518.366 295.457 519.365 293.937 521.646 293.098C522.593 292.89 523.543 292.734 524.495 292.626C525.443 292.522 526.393 292.469 527.345 292.469C527.72 286.39 528.513 280.415 529.724 274.544C530.936 268.677 532.664 263.96 534.904 260.392C538.262 255.155 541.884 252.845 545.759 253.473C549.634 254.102 552.953 256.254 555.71 259.92C558.462 263.591 560.172 268.151 560.841 273.6C561.504 279.055 560.413 283.978 557.563 288.381C556.04 290.689 553.998 292.68 551.435 294.355C548.868 296.036 546.062 297.397 543.024 298.443C543.211 306.832 544.353 314.325 546.445 320.928C548.533 327.532 552.618 331.777 558.702 333.665C563.642 332.617 568.204 330.259 572.386 326.591C576.565 322.924 580.368 319.199 583.788 315.425C584.931 314.378 586.162 313.906 587.495 314.009C588.824 314.119 589.962 314.536 590.916 315.268C591.865 316.006 592.529 316.948 592.911 318.098C593.29 319.253 593.004 320.456 592.057 321.716C589.014 324.858 585.972 327.743 582.933 330.361C579.891 332.987 576.471 335.346 572.672 337.438C564.69 341.635 557.847 343.358 552.148 342.627C546.445 341.89 541.774 339.591 538.13 335.708C534.487 331.832 531.774 326.799 530.001 320.613C528.227 314.432 527.248 307.985 527.061 301.274C526.107 301.274 525.207 301.328 524.352 301.431C523.496 301.539 522.878 301.588 522.5 301.588" fill="#78c4a0" fill-rule="nonzero" opacity="1" stroke="none" vectornator:layerName="path"/>
<path d="M587.49 261.965C584.828 261.547 583.594 260.078 583.785 257.562C583.972 255.047 585.398 253.583 588.061 253.16C591.67 252.953 595.233 252.688 598.752 252.373C602.265 252.059 605.829 251.587 609.441 250.959C609.057 240.266 608.822 229.525 608.727 218.725C608.632 207.93 608.587 197.08 608.587 186.177C608.774 184.713 609.677 183.612 611.294 182.875C612.908 182.143 614.618 181.774 616.425 181.774C618.23 181.774 619.94 182.089 621.556 182.718C623.17 183.347 624.166 184.29 624.55 185.548C624.55 196.239 624.594 206.829 624.692 217.31C624.786 227.795 625.021 238.276 625.405 248.757C630.915 247.71 636.426 246.767 641.938 245.926C647.449 245.091 652.96 244.463 658.472 244.04C660.754 245.091 661.894 246.713 661.894 248.914C661.894 251.115 660.657 252.427 658.188 252.845C652.674 253.268 647.257 253.897 641.938 254.732C636.616 255.572 631.2 256.516 625.691 257.562C626.068 267.208 626.687 277.531 627.544 288.538C628.398 299.545 629.347 310.344 630.393 320.928C631.436 331.518 632.531 341.369 633.672 350.489C634.812 359.61 635.855 366.999 636.807 372.66C636.616 374.547 635.903 376.011 634.67 377.063C633.432 378.11 632.054 378.684 630.536 378.791C629.013 378.894 627.544 378.58 626.118 377.848C624.692 377.111 623.789 376.011 623.41 374.547C619.036 355.255 615.856 336.18 613.86 317.312C611.865 298.444 610.484 279.158 609.726 259.449C606.114 260.289 602.458 260.864 598.752 261.179C595.047 261.493 591.291 261.758 587.49 261.965" fill="#78c4a0" fill-rule="nonzero" opacity="1" stroke="none" vectornator:layerName="path"/>
<path d="M660.473 261.965C657.81 261.547 656.576 260.078 656.767 257.562C656.954 255.047 658.378 253.583 661.043 253.16C664.65 252.953 668.213 252.688 671.732 252.373C675.246 252.059 678.809 251.587 682.421 250.959C682.04 240.266 681.803 229.525 681.71 218.725C681.613 207.93 681.567 197.08 681.567 186.177C681.754 184.713 682.658 183.612 684.276 182.875C685.888 182.143 687.598 181.774 689.408 181.774C691.21 181.774 692.92 182.089 694.538 182.718C696.15 183.347 697.148 184.29 697.532 185.548C697.532 196.239 697.577 206.829 697.672 217.31C697.768 227.795 698.004 238.276 698.386 248.757C703.895 247.71 709.407 246.767 714.921 245.926C720.43 245.091 725.94 244.463 731.454 244.04C733.736 245.091 734.875 246.713 734.875 248.914C734.875 251.115 733.637 252.427 731.169 252.845C725.655 253.268 720.239 253.897 714.921 254.732C709.597 255.572 704.181 256.516 698.671 257.562C699.05 267.208 699.67 277.531 700.525 288.538C701.38 299.545 702.328 310.344 703.375 320.928C704.417 331.518 705.513 341.369 706.654 350.489C707.793 359.61 708.835 366.999 709.789 372.66C709.597 374.547 708.885 376.011 707.651 377.063C706.412 378.11 705.037 378.684 703.519 378.791C701.995 378.894 700.525 378.58 699.099 377.848C697.672 377.111 696.769 376.011 696.39 374.547C692.017 355.255 688.836 336.18 686.841 317.312C684.846 298.444 683.464 279.158 682.707 259.449C679.095 260.289 675.439 260.864 671.732 261.179C668.027 261.493 664.272 261.758 660.473 261.965" fill="#78c4a0" fill-rule="nonzero" opacity="1" stroke="none" vectornator:layerName="path"/>
<path d="M763.951 283.034C766.611 280.101 767.466 276.903 766.517 273.443C765.563 269.984 764.045 267.419 761.956 265.738C761.003 266.996 760.246 268.569 759.675 270.456C759.106 272.343 758.579 274.386 758.107 276.587C757.631 278.788 757.297 280.99 757.108 283.191C756.918 285.392 756.727 287.334 756.54 289.01C759.389 287.545 761.857 285.55 763.951 283.034M735.73 301.588C733.449 301.171 732.167 299.858 731.882 297.658C731.596 295.457 732.594 293.937 734.875 293.098C735.823 292.89 736.772 292.734 737.725 292.626C738.673 292.522 739.623 292.469 740.575 292.469C740.949 286.39 741.743 280.415 742.954 274.544C744.166 268.677 745.894 263.96 748.134 260.392C751.493 255.155 755.115 252.845 758.989 253.473C762.864 254.102 766.183 256.254 768.939 259.92C771.692 263.591 773.402 268.151 774.071 273.6C774.733 279.055 773.643 283.978 770.792 288.381C769.269 290.689 767.228 292.68 764.665 294.355C762.098 296.036 759.291 297.397 756.254 298.443C756.441 306.832 757.583 314.325 759.675 320.928C761.763 327.532 765.848 331.777 771.932 333.665C776.872 332.617 781.434 330.259 785.616 326.591C789.795 322.924 793.597 319.199 797.019 315.425C798.16 314.378 799.392 313.906 800.725 314.009C802.053 314.119 803.193 314.536 804.146 315.268C805.094 316.006 805.758 316.948 806.141 318.098C806.52 319.253 806.234 320.456 805.286 321.716C802.244 324.858 799.202 327.743 796.163 330.361C793.122 332.987 789.7 335.346 785.902 337.438C777.92 341.635 771.077 343.358 765.377 342.627C759.675 341.89 755.004 339.591 751.36 335.708C747.717 331.832 745.003 326.799 743.23 320.613C741.457 314.432 740.477 307.985 740.291 301.274C739.337 301.274 738.437 301.328 737.583 301.431C736.726 301.539 736.107 301.588 735.73 301.588" fill="#78c4a0" fill-rule="nonzero" opacity="1" stroke="none" vectornator:layerName="path"/>
</g>
</g>
</g>
</svg>
