<?xml version="1.0" encoding="UTF-8" standalone="no"?>
<!DOCTYPE svg PUBLIC "-//W3C//DTD SVG 1.1//EN" "http://www.w3.org/Graphics/SVG/1.1/DTD/svg11.dtd">
<!-- Created with Vectornator (http://vectornator.io/) -->
<svg height="100%" stroke-miterlimit="10" style="fill-rule:nonzero;clip-rule:evenodd;stroke-linecap:round;stroke-linejoin:round;" version="1.1" viewBox="0 0 769.228 210.599" width="100%" xml:space="preserve" xmlns="http://www.w3.org/2000/svg" xmlns:vectornator="http://vectornator.io" xmlns:xlink="http://www.w3.org/1999/xlink">
<defs/>
<g id="名称未設定" vectornator:layerName="名称未設定">
<g opacity="1" vectornator:layerName="path">
<path d="M138.791 53.1758C163.638 67.3688 172.273 99.0158 158.08 123.864C143.888 148.71 112.24 157.344 87.3927 143.152C62.5467 128.959 53.9107 97.3108 68.1027 72.4638C82.2967 47.6168 113.945 38.9818 138.791 53.1758" fill="#fed600" fill-rule="nonzero" opacity="1" stroke="none" vectornator:layerName="path"/>
<path d="M148.952 76.0381C154.631 79.2821 156.605 86.5151 153.362 92.1921C150.117 97.8711 142.885 99.8461 137.205 96.6011C131.527 93.3581 129.554 86.1251 132.798 80.4471C136.041 74.7681 143.274 72.7941 148.952 76.0381" fill="#ffffff" fill-rule="nonzero" opacity="1" stroke="none" vectornator:layerName="path"/>
<path d="M135.499 24.7344C91.5732 7.5154 41.8252 29.2434 24.6052 73.1694C7.3852 117.095 29.1142 166.843 73.0402 184.062C98.3372 193.98 126.127 191.465 149.283 177.169L154.976 173.651L159.348 178.715C161.687 181.419 164.552 183.451 167.867 184.751C179.063 189.141 191.746 183.602 196.135 172.403C200.042 162.44 196.204 151.227 187.007 145.749L181.285 142.338L183.949 135.585C201.153 91.7024 179.424 41.9534 135.499 24.7344M67.3102 198.678C15.3232 178.301-10.3898 119.424 9.9882 67.4394C30.3672 15.4524 89.2432-10.2616 141.229 10.1174C191.487 29.8194 217.192 85.4934 200.434 136.146C212.285 146.385 216.653 163.082 210.754 178.133C203.204 197.391 181.394 206.919 162.137 199.371C158.563 197.968 155.213 196.009 152.228 193.592C125.956 207.764 95.3412 209.668 67.3102 198.678" fill="#78c4a0" fill-rule="nonzero" opacity="1" stroke="none" vectornator:layerName="path"/>
<path d="M135.499 24.7344C91.5732 7.5154 41.8252 29.2434 24.6052 73.1694C7.3852 117.095 29.1142 166.843 73.0402 184.062C98.3372 193.98 126.127 191.465 149.283 177.169L154.976 173.651L159.348 178.715C161.687 181.419 164.552 183.451 167.867 184.751C179.063 189.141 191.746 183.602 196.135 172.403C200.042 162.44 196.204 151.227 187.007 145.749L181.285 142.338L183.949 135.585C201.153 91.7024 179.424 41.9534 135.499 24.7344ZM67.3102 198.678C15.3232 178.301-10.3898 119.424 9.9882 67.4394C30.3672 15.4524 89.2432-10.2616 141.229 10.1174C191.487 29.8194 217.192 85.4934 200.434 136.146C212.285 146.385 216.653 163.082 210.754 178.133C203.204 197.391 181.394 206.919 162.137 199.371C158.563 197.968 155.213 196.009 152.228 193.592C125.956 207.764 95.3412 209.668 67.3102 198.678Z" fill="none" opacity="1" stroke="#78c4a0" stroke-linecap="butt" stroke-linejoin="miter" stroke-width="5" vectornator:layerName="path"/>
<path d="M223.479 75.5298C223.666 73.4368 224.57 71.9668 226.187 71.1278C227.801 70.2918 229.512 69.9778 231.319 70.1848C233.122 70.3948 234.833 70.9218 236.45 71.7578C238.062 72.5968 239.06 73.6438 239.444 74.9018C239.631 82.6598 239.871 90.5218 240.156 98.4868C240.44 106.457 240.962 114.526 241.723 122.702C243.243 115.783 245.002 108.973 246.998 102.26C248.992 95.5538 251.889 89.0518 255.693 82.7628C256.449 81.2988 257.732 80.3558 259.542 79.9328C261.345 79.5148 263.148 79.4618 264.957 79.7758C266.76 80.0898 268.471 80.6158 270.089 81.3478C271.7 82.0848 272.796 82.8708 273.366 83.7068C274.123 85.8048 274.978 88.8958 275.932 92.9838C276.88 97.0718 277.927 101.584 279.068 106.506C280.208 111.434 281.348 116.363 282.487 121.286C283.629 126.215 284.769 130.461 285.909 134.023C287.05 131.089 288.283 127.684 289.615 123.802C290.942 119.925 292.323 115.941 293.749 111.852C295.175 107.764 296.643 103.783 298.168 99.9018C299.687 96.0248 301.206 92.7228 302.729 89.9958C305.958 84.1288 309.093 81.1908 312.136 81.1908C315.935 81.1908 318.879 82.5028 320.973 85.1218C323.062 87.7458 324.772 90.9938 326.104 94.8708C327.431 98.7528 328.527 103.047 329.382 107.764C330.237 112.481 331.235 117.041 332.375 121.443C333.515 125.846 334.985 129.832 336.794 133.394C338.598 136.96 341.212 139.476 344.633 140.942C346.53 140.311 348.338 139.476 350.049 138.426C351.759 137.38 353.564 136.332 355.466 135.279C358.125 134.234 359.978 134.864 361.025 137.168C362.066 139.476 361.354 141.467 358.887 143.141C356.793 144.401 354.655 145.657 352.473 146.917C350.286 148.175 347.957 149.225 345.488 150.059C340.928 151.53 337.03 151.584 333.801 150.218C330.567 148.857 327.859 146.601 325.677 143.457C323.49 140.311 321.685 136.592 320.26 132.292C318.835 127.999 317.596 123.698 316.554 119.399C315.507 115.105 314.51 111.066 313.561 107.293C312.608 103.518 311.565 100.586 310.426 98.4868C308.145 101.843 306.101 105.672 304.296 109.966C302.488 114.265 300.827 118.614 299.308 123.015C297.784 127.42 296.314 131.718 294.889 135.909C293.464 140.105 291.798 143.668 289.9 146.601C288.377 148.91 286.336 150.587 283.771 151.633C281.205 152.684 278.399 151.216 275.361 147.23C273.838 145.344 272.368 142.15 270.944 137.638C269.518 133.133 268.138 128.259 266.809 123.015C265.478 117.779 264.195 112.589 262.961 107.45C261.724 102.315 260.538 97.9658 259.398 94.3988C257.117 98.5948 255.451 103.362 254.41 108.707C253.363 114.054 252.557 119.556 251.986 125.218C251.416 130.878 250.939 136.488 250.562 142.042C250.178 147.598 249.42 152.684 248.28 157.295C247.897 158.762 246.854 159.918 245.144 160.753C243.434 161.588 241.626 162.059 239.728 162.169C237.826 162.272 236.022 162.01 234.312 161.381C232.602 160.753 231.462 159.707 230.892 158.238C228.229 144.823 226.472 131.035 225.617 116.884C224.762 102.733 224.05 88.9498 223.479 75.5298" fill="#78c4a0" fill-rule="nonzero" opacity="1" stroke="none" vectornator:layerName="path"/>
<path d="M392.806 102.26C395.466 99.3273 396.322 96.1293 395.372 92.6693C394.419 89.2103 392.901 86.6453 390.811 84.9643C389.857 86.2223 389.101 87.7953 388.531 89.6823C387.961 91.5693 387.435 93.6123 386.963 95.8133C386.487 98.0143 386.152 100.216 385.964 102.417C385.773 104.618 385.582 106.56 385.396 108.236C388.245 106.771 390.712 104.776 392.806 102.26M364.585 120.814C362.305 120.397 361.022 119.084 360.737 116.884C360.451 114.683 361.449 113.163 363.73 112.324C364.678 112.116 365.628 111.96 366.58 111.852C367.529 111.748 368.478 111.695 369.431 111.695C369.805 105.616 370.598 99.6413 371.809 93.7703C373.021 87.9033 374.749 83.1863 376.989 79.6183C380.348 74.3813 383.969 72.0713 387.845 72.6993C391.719 73.3283 395.038 75.4803 397.794 79.1463C400.547 82.8173 402.258 87.3773 402.926 92.8263C403.589 98.2813 402.498 103.204 399.648 107.607C398.124 109.915 396.084 111.906 393.52 113.581C390.954 115.262 388.147 116.623 385.11 117.669C385.296 126.058 386.438 133.551 388.531 140.154C390.619 146.758 394.703 151.003 400.787 152.891C405.727 151.843 410.289 149.485 414.471 145.817C418.65 142.15 422.452 138.425 425.873 134.651C427.015 133.604 428.248 133.132 429.581 133.235C430.908 133.345 432.047 133.762 433.001 134.494C433.95 135.232 434.613 136.174 434.996 137.324C435.376 138.479 435.09 139.682 434.142 140.942C431.1 144.084 428.058 146.969 425.019 149.587C421.977 152.213 418.556 154.572 414.757 156.664C406.775 160.861 399.933 162.584 394.232 161.853C388.531 161.116 383.859 158.817 380.215 154.934C376.572 151.058 373.858 146.025 372.086 139.839C370.313 133.658 369.333 127.211 369.146 120.5C368.192 120.5 367.292 120.554 366.437 120.657C365.582 120.765 364.963 120.814 364.585 120.814" fill="#78c4a0" fill-rule="nonzero" opacity="1" stroke="none" vectornator:layerName="path"/>
<path d="M447.253 16.0948C447.441 14.6308 448.296 13.5298 449.819 12.7938C451.338 12.0608 453.048 11.6928 454.95 11.6928C456.847 11.6928 458.607 12.0068 460.224 12.6358C461.837 13.2638 462.833 14.2078 463.217 15.4658C463.217 27.8388 463.168 41.2038 463.074 55.5618C462.977 69.9248 462.977 83.8638 463.074 97.3868C463.168 110.908 463.36 123.33 463.645 134.651C463.929 145.972 464.544 154.887 465.498 161.381C465.307 162.847 464.687 163.947 463.645 164.685C462.598 165.416 461.363 165.887 459.939 166.099C458.513 166.305 457.133 166.147 455.806 165.628C454.473 165.102 453.524 164.315 452.954 163.269C451.243 156.144 450.007 146.867 449.248 135.439C448.486 124.014 447.917 111.538 447.538 98.0148C447.155 84.4928 447.013 70.6068 447.11 56.3478C447.203 42.0928 447.253 28.6738 447.253 16.0948" fill="#78c4a0" fill-rule="nonzero" opacity="1" stroke="none" vectornator:layerName="path"/>
<path d="M511.39 102.26C514.05 99.3273 514.906 96.1293 513.955 92.6693C513.003 89.2103 511.484 86.6453 509.395 84.9643C508.441 86.2223 507.684 87.7953 507.114 89.6823C506.545 91.5693 506.018 93.6123 505.546 95.8133C505.071 98.0143 504.736 100.216 504.548 102.417C504.357 104.618 504.166 106.56 503.979 108.236C506.829 106.771 509.295 104.776 511.39 102.26M483.169 120.814C480.888 120.397 479.606 119.084 479.321 116.884C479.035 114.683 480.034 113.163 482.315 112.324C483.262 112.116 484.212 111.96 485.164 111.852C486.112 111.748 487.062 111.695 488.014 111.695C488.389 105.616 489.182 99.6413 490.393 93.7703C491.605 87.9033 493.333 83.1863 495.573 79.6183C498.931 74.3813 502.553 72.0713 506.428 72.6993C510.303 73.3283 513.622 75.4803 516.379 79.1463C519.131 82.8173 520.841 87.3773 521.51 92.8263C522.173 98.2813 521.082 103.204 518.232 107.607C516.709 109.915 514.667 111.906 512.104 113.581C509.537 115.262 506.731 116.623 503.693 117.669C503.88 126.058 505.022 133.551 507.114 140.154C509.202 146.758 513.287 151.003 519.371 152.891C524.311 151.843 528.873 149.485 533.055 145.817C537.234 142.15 541.037 138.425 544.457 134.651C545.6 133.604 546.831 133.132 548.164 133.235C549.493 133.345 550.631 133.762 551.585 134.494C552.534 135.232 553.198 136.174 553.58 137.324C553.959 138.479 553.673 139.682 552.726 140.942C549.683 144.084 546.641 146.969 543.602 149.587C540.56 152.213 537.14 154.572 533.341 156.664C525.359 160.861 518.516 162.584 512.817 161.853C507.114 161.116 502.443 158.817 498.799 154.934C495.156 151.058 492.443 146.025 490.67 139.839C488.896 133.658 487.917 127.211 487.73 120.5C486.776 120.5 485.876 120.554 485.021 120.657C484.165 120.765 483.547 120.814 483.169 120.814" fill="#78c4a0" fill-rule="nonzero" opacity="1" stroke="none" vectornator:layerName="path"/>
<path d="M548.16 81.191C545.498 80.773 544.264 79.304 544.455 76.788C544.642 74.273 546.068 72.809 548.731 72.386C552.34 72.179 555.903 71.914 559.422 71.599C562.935 71.285 566.499 70.813 570.111 70.185C569.727 59.492 569.492 48.751 569.397 37.951C569.302 27.156 569.257 16.306 569.257 5.403C569.444 3.939 570.347 2.838 571.964 2.101C573.578 1.369 575.288 1 577.095 1C578.9 1 580.61 1.315 582.226 1.944C583.84 2.573 584.836 3.516 585.22 4.774C585.22 15.465 585.264 26.055 585.362 36.536C585.456 47.021 585.691 57.502 586.075 67.983C591.585 66.936 597.096 65.993 602.608 65.152C608.119 64.317 613.63 63.689 619.142 63.266C621.424 64.317 622.564 65.939 622.564 68.14C622.564 70.341 621.327 71.653 618.858 72.071C613.344 72.494 607.927 73.123 602.608 73.958C597.286 74.798 591.87 75.742 586.361 76.788C586.738 86.434 587.357 96.757 588.214 107.764C589.068 118.771 590.017 129.57 591.063 140.154C592.106 150.744 593.201 160.595 594.342 169.715C595.482 178.836 596.525 186.225 597.477 191.886C597.286 193.773 596.573 195.237 595.34 196.289C594.102 197.336 592.724 197.91 591.206 198.017C589.683 198.12 588.214 197.806 586.788 197.074C585.362 196.337 584.459 195.237 584.08 193.773C579.706 174.481 576.526 155.406 574.53 136.538C572.535 117.67 571.154 98.384 570.396 78.675C566.784 79.515 563.128 80.09 559.422 80.405C555.717 80.719 551.961 80.984 548.16 81.191" fill="#78c4a0" fill-rule="nonzero" opacity="1" stroke="none" vectornator:layerName="path"/>
<path d="M621.142 81.191C618.479 80.773 617.245 79.304 617.436 76.788C617.623 74.273 619.047 72.809 621.712 72.386C625.319 72.179 628.882 71.914 632.401 71.599C635.915 71.285 639.478 70.813 643.09 70.185C642.709 59.492 642.472 48.751 642.379 37.951C642.282 27.156 642.236 16.306 642.236 5.403C642.423 3.939 643.327 2.838 644.945 2.101C646.557 1.369 648.267 1 650.077 1C651.879 1 653.589 1.315 655.207 1.944C656.819 2.573 657.817 3.516 658.201 4.774C658.201 15.465 658.246 26.055 658.341 36.536C658.437 47.021 658.673 57.502 659.055 67.983C664.564 66.936 670.076 65.993 675.59 65.152C681.099 64.317 686.609 63.689 692.123 63.266C694.405 64.317 695.544 65.939 695.544 68.14C695.544 70.341 694.306 71.653 691.838 72.071C686.324 72.494 680.908 73.123 675.59 73.958C670.266 74.798 664.85 75.742 659.34 76.788C659.719 86.434 660.339 96.757 661.194 107.764C662.049 118.771 662.997 129.57 664.044 140.154C665.086 150.744 666.182 160.595 667.323 169.715C668.462 178.836 669.504 186.225 670.458 191.886C670.266 193.773 669.554 195.237 668.32 196.289C667.081 197.336 665.706 197.91 664.188 198.017C662.664 198.12 661.194 197.806 659.768 197.074C658.341 196.337 657.438 195.237 657.059 193.773C652.686 174.481 649.505 155.406 647.51 136.538C645.515 117.67 644.133 98.384 643.376 78.675C639.764 79.515 636.108 80.09 632.401 80.405C628.696 80.719 624.941 80.984 621.142 81.191" fill="#78c4a0" fill-rule="nonzero" opacity="1" stroke="none" vectornator:layerName="path"/>
<path d="M724.621 102.26C727.281 99.3273 728.136 96.1293 727.187 92.6693C726.233 89.2103 724.715 86.6453 722.626 84.9643C721.673 86.2223 720.916 87.7953 720.345 89.6823C719.776 91.5693 719.249 93.6123 718.777 95.8133C718.301 98.0143 717.967 100.216 717.778 102.417C717.588 104.618 717.397 106.56 717.21 108.236C720.059 106.771 722.527 104.776 724.621 102.26M696.4 120.814C694.119 120.397 692.837 119.084 692.552 116.884C692.266 114.683 693.264 113.163 695.545 112.324C696.493 112.116 697.442 111.96 698.395 111.852C699.343 111.748 700.293 111.695 701.245 111.695C701.619 105.616 702.413 99.6413 703.624 93.7703C704.836 87.9033 706.564 83.1863 708.804 79.6183C712.163 74.3813 715.785 72.0713 719.659 72.6993C723.534 73.3283 726.853 75.4803 729.609 79.1463C732.362 82.8173 734.072 87.3773 734.741 92.8263C735.403 98.2813 734.313 103.204 731.462 107.607C729.939 109.915 727.898 111.906 725.335 113.581C722.768 115.262 719.961 116.623 716.924 117.669C717.111 126.058 718.253 133.551 720.345 140.154C722.433 146.758 726.518 151.003 732.602 152.891C737.542 151.843 742.104 149.485 746.286 145.817C750.465 142.15 754.267 138.425 757.689 134.651C758.83 133.604 760.062 133.132 761.395 133.235C762.723 133.345 763.863 133.762 764.816 134.494C765.764 135.232 766.428 136.174 766.811 137.324C767.19 138.479 766.904 139.682 765.956 140.942C762.914 144.084 759.872 146.969 756.833 149.587C753.792 152.213 750.37 154.572 746.572 156.664C738.59 160.861 731.747 162.584 726.047 161.853C720.345 161.116 715.674 158.817 712.03 154.934C708.387 151.058 705.673 146.025 703.9 139.839C702.127 133.658 701.147 127.211 700.961 120.5C700.007 120.5 699.107 120.554 698.253 120.657C697.396 120.765 696.777 120.814 696.4 120.814" fill="#78c4a0" fill-rule="nonzero" opacity="1" stroke="none" vectornator:layerName="path"/>
</g>
</g>
</svg>
